<?xml version="1.0" encoding="UTF-8"?>
<!DOCTYPE svg PUBLIC "-//W3C//DTD SVG 1.1//EN" "http://www.w3.org/Graphics/SVG/1.1/DTD/svg11.dtd">
<svg xmlns="http://www.w3.org/2000/svg" version="1.1" width="200px" height="200px" style="shape-rendering:geometricPrecision; text-rendering:geometricPrecision; image-rendering:optimizeQuality; fill-rule:evenodd; clip-rule:evenodd" xmlns:xlink="http://www.w3.org/1999/xlink">
<g><path style="opacity:1" fill="#fffefd" d="M -0.5,-0.5 C 66.1667,-0.5 132.833,-0.5 199.5,-0.5C 199.5,66.1667 199.5,132.833 199.5,199.5C 132.833,199.5 66.1667,199.5 -0.5,199.5C -0.5,132.833 -0.5,66.1667 -0.5,-0.5 Z"/></g>
<g><path style="opacity:1" fill="#ff7d03" d="M 97.5,18.5 C 99.4684,26.4329 100.135,34.7663 99.5,43.5C 79.6718,54.2465 60.0051,65.2465 40.5,76.5C 32.4734,80.5133 24.4734,84.5133 16.5,88.5C 16.3336,79.8269 16.5002,71.1603 17,62.5C 43.6789,47.4132 70.5123,32.7466 97.5,18.5 Z"/></g>
<g><path style="opacity:1" fill="#ff9d41" d="M 97.5,18.5 C 99.4346,17.291 101.435,17.4577 103.5,19C 130.188,33.3402 156.521,48.1735 182.5,63.5C 174.5,67.5 166.5,71.5 158.5,75.5C 138.669,65.0854 119.002,54.4187 99.5,43.5C 100.135,34.7663 99.4684,26.4329 97.5,18.5 Z"/></g>
<g><path style="opacity:1" fill="#fffcfb" d="M 99.5,43.5 C 119.002,54.4187 138.669,65.0854 158.5,75.5C 153.033,79.0706 147.367,82.4039 141.5,85.5C 127.887,78.3589 114.22,71.1922 100.5,64C 99.2506,63.2599 98.2506,63.4265 97.5,64.5C 84.3091,71.2603 71.3091,78.2603 58.5,85.5C 52.5168,82.5294 46.5168,79.5294 40.5,76.5C 60.0051,65.2465 79.6718,54.2465 99.5,43.5 Z"/></g>
<g><path style="opacity:1" fill="#ff7c02" d="M 182.5,63.5 C 182.666,72.1731 182.5,80.8397 182,89.5C 176.353,92.7334 170.853,96.0667 165.5,99.5C 157.173,103.328 149.173,107.662 141.5,112.5C 127.83,119.838 114.164,127.172 100.5,134.5C 99.507,126.016 99.1736,117.349 99.5,108.5C 105.367,105.404 111.033,102.071 116.5,98.5C 124.998,94.4181 133.332,90.0847 141.5,85.5C 147.367,82.4039 153.033,79.0706 158.5,75.5C 166.5,71.5 174.5,67.5 182.5,63.5 Z"/></g>
<g><path style="opacity:1" fill="#ff7c02" d="M 97.5,64.5 C 99.4684,72.4329 100.135,80.7663 99.5,89.5C 94.5257,92.9911 89.1924,95.9911 83.5,98.5C 74.7658,103.529 66.0992,108.529 57.5,113.5C 51.9384,115.733 46.6051,118.399 41.5,121.5C 33.1667,126.167 24.8333,130.833 16.5,135.5C 16.3336,126.494 16.5002,117.494 17,108.5C 22.287,105.107 27.787,102.107 33.5,99.5C 41.7706,94.5361 50.104,89.8694 58.5,85.5C 71.3091,78.2603 84.3091,71.2603 97.5,64.5 Z"/></g>
<g><path style="opacity:1" fill="#ff9d41" d="M 97.5,64.5 C 98.2506,63.4265 99.2506,63.2599 100.5,64C 114.22,71.1922 127.887,78.3589 141.5,85.5C 133.332,90.0847 124.998,94.4181 116.5,98.5C 110.702,95.7674 105.035,92.7674 99.5,89.5C 100.135,80.7663 99.4684,72.4329 97.5,64.5 Z"/></g>
<g><path style="opacity:1" fill="#ff9d41" d="M 40.5,76.5 C 46.5168,79.5294 52.5168,82.5294 58.5,85.5C 50.104,89.8694 41.7706,94.5361 33.5,99.5C 28.2291,96.5275 22.8957,93.5275 17.5,90.5C 16.7025,90.0431 16.3691,89.3764 16.5,88.5C 24.4734,84.5133 32.4734,80.5133 40.5,76.5 Z"/></g>
<g><path style="opacity:1" fill="#fffbf8" d="M 99.5,89.5 C 105.035,92.7674 110.702,95.7674 116.5,98.5C 111.033,102.071 105.367,105.404 99.5,108.5C 93.7941,105.653 88.4607,102.32 83.5,98.5C 89.1924,95.9911 94.5257,92.9911 99.5,89.5 Z"/></g>
<g><path style="opacity:1" fill="#ff9d41" d="M 165.5,99.5 C 171.655,102.097 177.321,105.43 182.5,109.5C 174.5,113.5 166.5,117.5 158.5,121.5C 152.702,118.767 147.035,115.767 141.5,112.5C 149.173,107.662 157.173,103.328 165.5,99.5 Z"/></g>
<g><path style="opacity:1" fill="#ff9e42" d="M 83.5,98.5 C 88.4607,102.32 93.7941,105.653 99.5,108.5C 99.1736,117.349 99.507,126.016 100.5,134.5C 100.44,135.043 100.107,135.376 99.5,135.5C 85.7192,127.611 71.7192,120.278 57.5,113.5C 66.0992,108.529 74.7658,103.529 83.5,98.5 Z"/></g>
<g><path style="opacity:1" fill="#ff7d03" d="M 182.5,109.5 C 182.832,118.525 182.498,127.525 181.5,136.5C 154.574,151.46 127.574,166.127 100.5,180.5C 99.507,172.016 99.1736,163.349 99.5,154.5C 119.363,143.738 139.03,132.738 158.5,121.5C 166.5,117.5 174.5,113.5 182.5,109.5 Z"/></g>
<g><path style="opacity:1" fill="#fffdfb" d="M 141.5,112.5 C 147.035,115.767 152.702,118.767 158.5,121.5C 139.03,132.738 119.363,143.738 99.5,154.5C 81.8603,145.013 64.1936,135.513 46.5,126C 44.3083,124.933 42.6417,123.433 41.5,121.5C 46.6051,118.399 51.9384,115.733 57.5,113.5C 71.7192,120.278 85.7192,127.611 99.5,135.5C 100.107,135.376 100.44,135.043 100.5,134.5C 114.164,127.172 127.83,119.838 141.5,112.5 Z"/></g>
<g><path style="opacity:1" fill="#ff9d41" d="M 41.5,121.5 C 42.6417,123.433 44.3083,124.933 46.5,126C 64.1936,135.513 81.8603,145.013 99.5,154.5C 99.1736,163.349 99.507,172.016 100.5,180.5C 99.2789,181.465 97.9456,181.298 96.5,180C 69.578,165.378 42.9114,150.545 16.5,135.5C 24.8333,130.833 33.1667,126.167 41.5,121.5 Z"/></g>
</svg>
